<?xml version="1.0" encoding="UTF-8" standalone="no" ?>
<!DOCTYPE svg PUBLIC "-//W3C//DTD SVG 1.1//EN" "http://www.w3.org/Graphics/SVG/1.1/DTD/svg11.dtd">
<svg xmlns="http://www.w3.org/2000/svg" xmlns:xlink="http://www.w3.org/1999/xlink" version="1.1" width="1080" height="1080" viewBox="0 0 1080 1080" xml:space="preserve">
<desc>Created with Fabric.js 5.2.4</desc>
<defs>
</defs>
<g transform="matrix(0 0 0 0 0 0)" id="8acd2582-8b08-4201-8cd6-bac7142e346a"  >
</g>
<g transform="matrix(1 0 0 1 540 540)" id="93bc5b5e-80d7-41cd-a93f-0f81b41d189b"  >
<rect style="stroke: none; stroke-width: 1; stroke-dasharray: none; stroke-linecap: butt; stroke-dashoffset: 0; stroke-linejoin: miter; stroke-miterlimit: 4; fill: rgb(255,255,255); fill-rule: nonzero; opacity: 1; visibility: hidden;" vector-effect="non-scaling-stroke"  x="-540" y="-540" rx="0" ry="0" width="1080" height="1080" />
</g>
<g transform="matrix(3.6 0 0 3.6 539.23 540.72)"  >
<g style="" vector-effect="non-scaling-stroke"   >
		<g transform="matrix(0.46 0 0 0.46 8.53 0.55)"  >
<path style="stroke: none; stroke-width: 1; stroke-dasharray: none; stroke-linecap: butt; stroke-dashoffset: 0; stroke-linejoin: miter; stroke-miterlimit: 4; fill: rgb(255,255,255); fill-opacity: 0; fill-rule: nonzero; opacity: 1;" vector-effect="non-scaling-stroke"  transform=" translate(-299.96, -300)" d="M 478.487 288.529 L 478.48600000000005 288.529 L 478.48600000000005 121.478 L 311.43600000000004 121.478 L 311.43600000000004 121.47699999999999 C 311.43600000000004 115.15299999999999 306.29 110.00699999999999 299.963 110.00699999999999 C 293.63800000000003 110.00699999999999 288.493 115.15299999999999 288.493 121.47699999999999 L 288.493 121.478 L 121.441 121.478 L 121.441 288.529 C 115.113 288.529 109.96900000000001 293.675 109.96900000000001 300.002 C 109.96900000000001 306.326 115.114 311.471 121.441 311.47200000000004 L 121.441 478.523 L 288.49199999999996 478.523 C 288.49299999999994 484.84700000000004 293.638 489.99300000000005 299.962 489.99300000000005 C 306.28999999999996 489.99300000000005 311.435 484.84700000000004 311.435 478.523 L 478.485 478.523 L 478.485 311.471 L 478.486 311.471 C 484.81 311.471 489.955 306.325 489.955 300.001 C 489.955 293.674 484.809 288.529 478.487 288.529 z" stroke-linecap="round" />
</g>
		<g transform="matrix(0.46 0 0 0.46 8.86 0.85)"  >
<path style="stroke: none; stroke-width: 1; stroke-dasharray: none; stroke-linecap: butt; stroke-dashoffset: 0; stroke-linejoin: miter; stroke-miterlimit: 4; fill: rgb(0,32,105); fill-rule: nonzero; opacity: 1;" vector-effect="non-scaling-stroke"  transform=" translate(-300, -300)" d="M 599.32 358.747 C 597.12 344.58500000000004 589.255 331.533 577.6070000000001 323.153 C 574.3610000000001 320.81300000000005 570.7690000000001 318.913 566.9780000000001 317.362 C 575.6890000000001 314.39000000000004 583.734 309.56300000000005 590.5200000000001 302.97 L 593.5770000000001 300.002 L 590.5200000000001 297.034 C 583.7340000000002 290.44 575.6850000000001 285.611 566.9750000000001 282.64 C 570.7660000000002 281.08799999999997 574.3610000000001 279.188 577.6070000000001 276.851 C 597.1940000000001 262.742 604.6440000000001 236.64499999999998 596.9270000000001 214.002 C 589.6320000000002 192.598 570.1370000000002 177.08 547.8690000000001 173.856 C 543.0860000000001 173.17 538.2900000000002 173.13 533.5560000000002 173.511 C 534.8840000000001 171.989 536.1390000000001 170.389 537.2850000000002 168.69299999999998 C 546.6000000000003 154.916 547.8680000000002 136.30499999999998 539.4070000000002 121.81499999999998 C 531.1740000000002 107.71499999999999 514.3510000000001 99.46799999999999 498.22600000000017 103.56299999999999 C 497.3170000000002 103.79299999999999 496.4110000000002 104.14199999999998 495.5020000000002 104.463 C 495.8210000000002 103.55499999999999 496.17100000000016 102.646 496.4010000000002 101.738 C 500.47900000000016 85.608 492.26000000000016 68.799 478.15200000000016 60.557 C 463.65300000000013 52.086 445.0600000000002 53.378 431.26800000000014 62.675000000000004 C 429.57000000000016 63.82300000000001 427.9710000000001 65.07900000000001 426.45500000000015 66.40400000000001 C 426.8360000000001 61.66800000000001 426.7980000000002 56.87300000000001 426.10900000000015 52.09400000000001 C 422.88800000000015 29.831000000000007 407.36300000000017 10.327000000000005 385.96300000000014 3.034000000000006 C 363.29900000000015 -4.689999999999994 337.24600000000015 2.778000000000006 323.1100000000001 22.356000000000005 C 320.7740000000001 25.606000000000005 318.8730000000001 29.204000000000004 317.32600000000014 32.99100000000001 C 314.35500000000013 24.279000000000007 309.5240000000001 16.231000000000005 302.9300000000001 9.439000000000007 L 299.9620000000001 6.382000000000007 L 296.9940000000001 9.439000000000007 C 290.4000000000001 16.22800000000001 285.5730000000001 24.274000000000008 282.6020000000001 32.983000000000004 C 281.05500000000006 29.203000000000003 279.1580000000001 25.609000000000005 276.8140000000001 22.356 C 262.703 2.766 236.606 -4.683 213.96 3.034 C 192.56 10.326 177.04000000000002 29.833 173.82 52.094 C 173.131 56.882000000000005 173.093 61.674 173.47 66.405 C 171.954 65.08 170.355 63.822 168.657 62.675000000000004 C 154.876 53.375 136.26600000000002 52.09 121.77600000000001 60.554 C 107.66400000000002 68.797 99.45000000000002 85.606 103.52400000000002 101.738 C 103.75400000000002 102.645 104.10400000000001 103.55499999999999 104.42300000000002 104.463 C 103.51400000000001 104.142 102.60500000000002 103.79299999999999 101.69900000000001 103.56299999999999 C 85.57800000000002 99.469 68.74700000000001 107.71699999999998 60.515000000000015 121.81499999999998 C 52.05300000000001 136.307 53.33100000000002 154.91299999999998 62.640000000000015 168.69299999999998 C 63.786000000000016 170.39 65.04100000000001 171.98899999999998 66.36900000000001 173.511 C 61.634000000000015 173.128 56.838000000000015 173.17 52.05600000000001 173.856 C 29.791 177.077 10.295 192.6 2.998 214 C -4.72 236.636 2.7230000000000003 262.753 22.321 276.848 C 25.57 279.19100000000003 29.165000000000003 281.092 32.949 282.642 C 24.238 285.614 16.192999999999998 290.441 9.403999999999996 297.03499999999997 L 6.346999999999996 300.003 L 9.403999999999996 302.971 C 16.192999999999998 309.563 24.238999999999997 314.39 32.946 317.363 C 29.162 318.912 25.569999999999997 320.811 22.323999999999998 323.151 C 1.282 338.288 -5.493 366.952 4.721 390.437 C 14.394 412.676 37.206999999999994 426.809 61.30500000000001 426.809 C 63.00000000000001 426.809 64.674 426.641 66.355 426.50500000000005 C 65.031 428.023 63.782000000000004 429.61600000000004 62.64 431.30600000000004 C 53.098 445.43100000000004 52.053 464.48100000000005 61.088 479.10300000000007 C 69.47800000000001 492.6820000000001 85.973 500.42500000000007 101.699 496.43500000000006 C 102.605 496.20500000000004 103.517 495.8570000000001 104.42699999999999 495.5350000000001 C 104.10499999999999 496.44700000000006 103.755 497.3570000000001 103.52499999999999 498.2670000000001 C 99.44699999999999 514.3990000000001 107.67299999999999 531.2090000000001 121.78399999999999 539.4480000000001 C 136.27499999999998 547.9090000000001 154.877 546.6240000000001 168.658 537.3230000000001 C 170.356 536.1750000000001 171.95499999999998 534.9180000000001 173.47099999999998 533.5930000000001 C 173.09399999999997 538.3230000000001 173.13099999999997 543.1160000000001 173.82099999999997 547.903 C 177.10699999999997 570.617 193.16899999999998 590.383 215.16499999999996 597.345 C 237.54799999999997 604.429 262.95799999999997 596.879 276.816 577.6410000000001 C 279.15599999999995 574.3870000000001 281.056 570.7940000000001 282.604 567.013 C 285.575 575.7230000000001 290.402 583.767 296.996 590.557 L 299.964 593.614 L 302.932 590.557 C 309.526 583.766 314.353 575.719 317.32800000000003 567.0070000000001 C 318.87500000000006 570.7950000000001 320.776 574.3900000000001 323.11600000000004 577.6410000000001 C 336.98300000000006 596.8720000000001 362.37000000000006 604.4330000000001 384.76300000000003 597.345 C 406.75700000000006 590.384 422.824 570.618 426.11100000000005 547.903 C 426.80000000000007 543.124 426.838 538.33 426.45700000000005 533.5930000000001 C 427.97300000000007 534.9190000000001 429.57200000000006 536.176 431.27400000000006 537.326 C 445.06600000000003 546.618 463.65100000000007 547.91 478.15000000000003 539.446 C 492.26500000000004 531.206 500.478 514.392 496.40400000000005 498.26000000000005 C 496.17400000000004 497.35300000000007 495.82400000000007 496.4440000000001 495.50500000000005 495.535 C 496.41400000000004 495.85600000000005 497.32000000000005 496.20500000000004 498.22900000000004 496.435 C 513.989 500.433 530.395 492.659 538.837 479.108 C 547.917 464.532 546.81 445.389 537.288 431.306 C 536.146 429.616 534.897 428.02299999999997 533.572 426.505 C 535.253 426.64 536.931 426.80899999999997 538.626 426.80899999999997 C 574.456 426.809 604.981 395.097 599.32 358.747 z M 546.706 312.503 C 533.926 312.503 521.7470000000001 308.09499999999997 511.966 300.001 C 521.747 291.90799999999996 533.926 287.49899999999997 546.706 287.49899999999997 C 559.489 287.49899999999997 571.668 291.90799999999996 581.4490000000001 300.001 C 571.669 308.095 559.489 312.503 546.706 312.503 z M 500.257 111.584 C 525.325 105.224 542.217 133.24 534.935 154.93200000000002 C 531.487 165.20300000000003 523.8059999999999 173.21 514.2199999999999 178.01600000000002 C 503.50299999999993 183.389 494.1249999999999 189.27400000000003 486.6329999999999 198.918 C 484.4509999999999 201.72400000000002 482.5679999999999 204.71200000000002 480.85599999999994 207.782 L 480.85599999999994 148.17700000000002 C 481.6789999999999 149.103 482.5679999999999 149.99500000000003 483.52199999999993 150.77400000000003 C 491.35799999999995 157.13600000000002 505.2539999999999 157.04000000000002 509.90799999999996 146.79400000000004 C 510.484 145.52500000000003 510.83099999999996 143.86800000000005 510.90999999999997 142.86200000000005 C 511.08799999999997 140.59400000000005 509.4 138.62800000000004 507.133 138.44000000000005 C 504.90299999999996 138.23100000000005 502.865 139.94300000000004 502.66299999999995 142.21400000000006 C 502.63899999999995 142.48800000000006 502.47399999999993 143.14700000000005 502.37499999999994 143.37000000000006 C 497.89199999999994 153.31000000000006 485.41599999999994 142.54700000000005 483.76699999999994 136.42300000000006 C 480.709 125.067 489.566 114.297 500.257 111.584 z M 319.141 472.617 C 317.233 463.776 309.37 457.124 299.963 457.124 C 290.559 457.124 282.699 463.776 280.78900000000004 472.617 L 127.348 472.617 L 127.348 319.174 C 136.189 317.26599999999996 142.841 309.404 142.841 300.001 C 142.841 290.596 136.18900000000002 282.73199999999997 127.34800000000001 280.825 L 127.34800000000001 127.383 L 280.789 127.383 C 282.697 136.227 290.56 142.88 299.96299999999997 142.88 C 309.36999999999995 142.88 317.23299999999995 136.227 319.14099999999996 127.383 L 472.582 127.383 L 472.582 280.824 C 463.73699999999997 282.731 457.085 290.596 457.085 300.00100000000003 C 457.085 309.40400000000005 463.73699999999997 317.26800000000003 472.582 319.175 L 472.582 472.616 L 319.141 472.617 L 319.141 472.617 z M 311.322 476.754 C 311.322 483.01500000000004 306.227 488.11 299.963 488.11 C 293.702 488.11 288.607 483.015 288.607 476.754 C 288.607 470.49300000000005 293.70200000000006 465.398 299.963 465.398 C 306.227 465.399 311.322 470.493 311.322 476.754 z M 123.21 311.358 C 116.945 311.358 111.851 306.263 111.851 300.002 C 111.851 293.738 116.946 288.64300000000003 123.21 288.64300000000003 C 129.471 288.64300000000003 134.566 293.73800000000006 134.566 300.002 C 134.566 306.263 129.471 311.358 123.21 311.358 z M 288.607 123.246 C 288.607 116.985 293.70200000000006 111.89 299.963 111.89 C 306.228 111.89 311.322 116.985 311.322 123.246 C 311.322 129.511 306.227 134.605 299.963 134.605 C 293.702 134.605 288.607 129.51 288.607 123.246 z M 465.36 300.002 C 465.36 293.738 470.45500000000004 288.64300000000003 476.719 288.64300000000003 C 482.98 288.64300000000003 488.075 293.73800000000006 488.075 300.002 C 488.075 306.26300000000003 482.97999999999996 311.358 476.719 311.358 C 470.454 311.358 465.36 306.263 465.36 300.002 z M 435.896 69.534 C 457.035 55.282000000000004 493.577 68.15700000000001 488.86400000000003 97.36600000000001 C 487.04800000000006 108.62000000000002 476.71500000000003 118.78200000000001 464.70900000000006 116.50300000000001 C 458.07700000000006 115.24400000000001 446.30100000000004 102.25100000000002 456.60800000000006 97.58400000000002 C 456.8520000000001 97.47800000000002 457.51000000000005 97.32000000000002 457.7710000000001 97.29900000000002 C 460.0420000000001 97.09700000000002 461.7340000000001 95.09300000000002 461.5350000000001 92.81800000000003 C 461.3430000000001 90.55000000000003 459.48300000000006 88.89700000000002 457.0780000000001 89.05100000000003 C 456.0660000000001 89.13700000000003 454.40600000000006 89.49000000000002 453.1700000000001 90.05600000000003 C 442.9380000000001 94.70400000000002 442.8070000000001 108.61000000000003 449.18700000000007 116.43500000000003 C 449.96200000000005 117.39200000000002 450.85400000000004 118.28100000000003 451.7870000000001 119.10800000000003 L 392.1810000000001 119.10800000000003 C 395.2520000000001 117.39600000000003 398.2360000000001 115.51400000000004 401.0460000000001 113.33100000000003 C 408.9510000000001 107.18700000000003 415.4880000000001 99.23700000000004 419.9150000000001 90.25300000000003 C 423.977 82.01 428.038 74.846 435.896 69.534 z M 299.963 18.515 C 308.05600000000004 28.296 312.46500000000003 40.475 312.46500000000003 53.255 C 312.46500000000003 66.038 308.05600000000004 78.217 299.963 87.998 C 291.87 78.217 287.461 66.03800000000001 287.461 53.255 C 287.461 40.475 291.87 28.296 299.963 18.515 z M 182.013 53.275 C 185.269 30.695999999999998 203.133 11.795000000000002 225.95100000000002 8.692 C 249.05700000000002 5.550000000000001 272.557 20.27 277.29600000000005 43.626 C 282.15200000000004 67.55799999999999 263.3190000000001 93.114 237.71400000000006 89.9 C 216.73200000000006 87.26700000000001 200.76700000000005 60.388000000000005 218.25300000000004 43.623000000000005 C 225.67000000000004 36.51200000000001 238.81000000000003 35.00000000000001 245.77300000000005 43.719 C 248.61900000000006 47.284 249.93900000000005 52.404 247.83600000000004 56.672 C 246.42500000000004 59.535999999999994 242.36700000000005 62.934 239.10800000000003 60.637 C 238.98100000000002 60.538000000000004 238.70000000000005 60.239 238.59000000000003 60.092 C 237.29300000000003 58.214999999999996 234.72700000000003 57.738 232.84700000000004 59.025 C 230.96000000000004 60.315 230.48000000000005 62.891999999999996 231.77000000000004 64.775 C 232.27800000000005 65.516 233.28000000000003 66.641 234.28100000000003 67.355 C 242.23200000000003 73.04 252.63400000000004 67.214 255.84700000000004 59.04600000000001 C 259.07000000000005 50.85300000000001 256.00100000000003 41.46300000000001 249.59600000000003 35.73800000000001 C 233.63200000000003 21.468000000000007 209.60000000000002 32.937000000000005 204.05500000000004 51.63300000000001 C 198.07200000000003 71.80600000000001 212.16200000000003 92.31200000000001 231.88600000000002 97.22400000000002 C 252.17100000000002 102.27600000000001 273.269 90.91600000000003 281.927 72.24700000000001 C 281.97200000000004 72.14800000000001 281.999 72.04100000000001 282.047 71.94100000000002 C 284.949 81.26900000000002 289.999 89.86900000000001 296.995 97.06900000000002 L 299.963 100.12600000000002 L 302.93100000000004 97.06900000000002 C 309.92600000000004 89.87000000000002 314.97600000000006 81.27200000000002 317.879 71.94500000000002 C 317.927 72.04700000000003 317.951 72.15300000000002 317.999 72.25500000000002 C 326.668 90.91400000000002 347.755 102.27800000000002 368.04 97.22500000000002 C 387.757 92.31400000000002 401.85900000000004 71.80500000000002 395.874 51.63800000000002 C 390.33700000000005 32.97900000000002 366.281 21.468000000000018 350.32800000000003 35.74100000000002 C 343.925 41.46900000000002 340.855 50.85000000000002 344.08000000000004 59.047000000000025 C 347.283 67.19100000000003 357.69700000000006 73.08200000000002 365.646 67.35600000000002 C 366.648 66.64200000000002 367.65000000000003 65.51700000000002 368.15700000000004 64.77600000000002 C 369.43300000000005 62.910000000000025 368.946 60.40500000000002 367.1 59.102000000000025 C 365.247 57.79500000000002 362.66700000000003 58.26500000000002 361.34000000000003 60.090000000000025 C 361.23400000000004 60.23800000000003 360.94500000000005 60.53900000000002 360.82500000000005 60.632000000000026 C 356.99300000000005 63.36900000000003 352.64900000000006 58.70800000000003 351.571 55.32600000000003 C 349.812 49.80700000000003 352.76700000000005 44.041000000000025 357.25500000000005 40.82800000000003 C 367.19500000000005 33.711000000000034 380.67800000000005 39.41000000000003 386.0450000000001 49.37300000000003 C 392.54100000000005 61.433000000000035 387.6020000000001 76.47900000000004 376.8330000000001 84.19800000000004 C 366.0440000000001 91.93200000000003 351.4500000000001 91.86400000000003 340.1770000000001 85.16100000000003 C 312.86500000000007 68.92100000000003 318.4080000000001 29.254000000000033 343.8500000000001 14.515000000000029 C 369.2180000000001 -0.18099999999997074 401.68000000000006 12.59800000000003 413.5340000000001 38.46300000000003 C 426.9790000000001 67.79900000000004 411.4040000000001 102.61500000000004 382.2440000000001 114.85600000000002 C 377.23800000000006 116.95800000000003 372.03100000000006 118.38200000000002 366.7710000000001 119.11000000000003 L 319.14200000000005 119.11000000000003 C 317.23400000000004 110.26900000000003 309.37100000000004 103.61700000000003 299.96400000000006 103.61700000000003 C 290.56000000000006 103.61700000000003 282.70000000000005 110.26900000000003 280.7900000000001 119.11000000000003 L 233.1610000000001 119.11000000000003 C 227.8950000000001 118.38200000000003 222.6870000000001 116.95800000000003 217.6850000000001 114.85600000000002 C 193.686 104.78 178.247 79.277 182.013 53.275 z M 111.871 85.325 C 118.195 64.311 144.011 57.765 161.903 68.20400000000001 C 169.928 72.887 175.001 79.819 178.956 88.019 C 183.72299999999998 97.903 190.173 106.554 198.879 113.331 C 201.689 115.515 204.67399999999998 117.396 207.744 119.108 L 148.141 119.108 C 149.071 118.28200000000001 149.963 117.39500000000001 150.738 116.43900000000001 C 157.099 108.60400000000001 157.001 94.724 146.769 90.063 C 145.52 89.49000000000001 143.86 89.137 142.848 89.051 C 140.477 88.886 138.58700000000002 90.55 138.39100000000002 92.818 C 138.192 95.093 139.883 97.096 142.15500000000003 97.29899999999999 C 142.41600000000003 97.32 143.07400000000004 97.47699999999999 143.33200000000002 97.591 C 147.25300000000001 99.345 147.479 104.69399999999999 146.12500000000003 108.151 C 143.52300000000002 114.791 135.65400000000002 117.597 129.05100000000002 116.533 C 114.826 114.243 107.978 98.258 111.871 85.325 z M 63.124 145.319 C 61.824000000000005 124.05699999999999 83.444 102.44999999999999 104.843 113.58699999999999 C 113.653 118.17199999999998 119.592 128.808 115.43900000000001 138.57399999999998 C 113.15400000000001 143.94799999999998 101.536 152.206 97.551 143.36999999999998 C 97.45100000000001 143.14699999999996 97.287 142.48799999999997 97.263 142.21399999999997 C 97.057 139.94299999999998 95.02600000000001 138.22699999999998 92.793 138.43999999999997 C 90.525 138.62899999999996 88.837 140.59399999999997 89.016 142.86199999999997 C 89.095 143.86699999999996 89.441 145.52399999999997 90.018 146.79399999999995 C 94.67 157.03499999999997 108.574 157.14599999999996 116.404 150.77399999999994 C 117.36099999999999 149.99899999999994 118.246 149.10499999999993 119.073 148.17699999999994 L 119.073 207.78699999999992 C 117.35799999999999 204.71199999999993 115.478 201.72299999999993 113.29599999999999 198.91799999999992 C 105.17999999999999 188.47199999999992 95.06899999999999 183.1359999999999 83.756 177.00799999999992 C 72.106 170.698 63.93 158.63 63.124 145.319 z M 53.219 287.5 C 65.999 287.5 78.178 291.909 87.959 300.002 C 78.178 308.095 65.999 312.504 53.219 312.504 C 40.43900000000001 312.504 28.26 308.096 18.479 300.002 C 28.26 291.909 40.439 287.5 53.219 287.5 z M 53.236 417.955 C 31.121999999999996 414.75 12.494999999999997 397.562 8.832999999999998 375.31899999999996 C 5.099999999999998 352.63899999999995 18.732999999999997 329.03499999999997 41.418 323.167 C 64.25999999999999 317.258 89.922 333.041 90.12700000000001 357.808 C 90.3 378.74 67.3 397.955 47.564 385.032 C 37.827 378.656 33.441 363.513 42.905 354.817 C 46.174 351.813 50.964 350.23 55.291 351.61400000000003 C 58.602 352.67300000000006 63.367 357.02900000000005 60.601 360.84900000000005 C 60.502 360.97900000000004 60.193 361.27400000000006 60.042 361.38400000000007 C 58.172000000000004 362.6840000000001 57.702 365.25700000000006 58.996 367.13400000000007 C 60.296 369.0110000000001 62.869 369.4840000000001 64.753 368.1910000000001 C 65.484 367.68700000000007 66.595 366.69200000000006 67.316 365.68700000000007 C 73.004 357.73100000000005 67.184 347.33700000000005 59.007000000000005 344.1210000000001 C 50.812000000000005 340.8980000000001 41.426 343.9650000000001 35.697 350.3710000000001 C 21.426000000000002 366.3300000000001 32.942 390.3760000000001 51.601 395.9140000000001 C 71.769 401.9000000000001 92.271 387.7980000000001 97.18299999999999 368.0840000000001 C 102.234 347.8170000000001 90.89099999999999 326.6740000000001 72.21099999999998 318.04000000000013 C 72.11099999999999 317.99400000000014 72.00499999999998 317.9660000000001 71.90199999999999 317.9210000000001 C 81.22999999999999 315.0180000000001 89.82799999999999 309.9670000000001 97.03199999999998 302.9720000000001 L 100.08899999999998 300.0040000000001 L 97.03199999999998 297.03600000000006 C 89.82699999999998 290.0400000000001 81.22599999999998 284.98800000000006 71.89499999999998 282.08500000000004 C 71.99799999999998 282.03900000000004 72.10399999999998 282.01200000000006 72.20699999999998 281.96500000000003 C 90.88999999999999 273.33500000000004 102.23199999999997 252.18800000000005 97.18299999999998 231.92100000000005 C 92.27199999999998 212.21000000000004 71.76399999999998 198.10300000000007 51.60099999999998 204.09100000000007 C 32.933999999999976 209.63500000000008 21.43299999999998 233.66700000000006 35.69799999999998 249.63500000000005 C 41.41999999999998 256.04100000000005 50.80199999999998 259.10600000000005 58.99599999999998 255.88800000000003 C 67.18799999999999 252.67100000000002 73.00799999999998 242.28800000000004 67.30899999999998 234.30900000000003 C 66.60599999999998 233.33100000000002 65.50099999999998 232.34000000000003 64.76999999999998 231.82900000000004 C 62.90699999999998 230.53200000000004 60.384999999999984 230.99200000000005 59.067999999999984 232.84100000000004 C 57.75099999999998 234.68700000000004 58.19699999999998 237.27300000000002 60.02899999999998 238.60800000000003 C 60.182999999999986 238.72100000000003 60.49899999999998 239.02300000000002 60.58499999999998 239.12900000000002 C 63.30299999999998 242.94500000000002 58.66099999999998 247.318 55.28599999999998 248.39300000000003 C 49.77299999999998 250.14900000000003 43.99399999999998 247.20000000000002 40.78999999999998 242.70400000000004 C 32.818999999999974 231.51900000000003 40.76599999999998 216.92800000000003 52.38299999999998 212.57800000000003 C 65.08999999999997 207.82000000000002 79.26299999999998 214.30300000000003 85.84999999999998 225.71400000000003 C 92.31699999999998 236.91900000000004 91.15299999999998 251.24800000000002 83.84999999999998 261.766 C 66.09599999999998 287.336 27.817999999999984 280.63800000000003 13.900999999999982 255.06300000000002 C -0.11100000000001842 229.312 13.376999999999981 197.293 39.47999999999998 185.95300000000003 C 68.65899999999998 173.27700000000004 102.75299999999999 189.00500000000002 114.81599999999997 217.72500000000002 C 116.91899999999997 222.72700000000003 118.34299999999998 227.93500000000003 119.07399999999997 233.199 L 119.07399999999997 280.82800000000003 C 110.22899999999997 282.735 103.57699999999997 290.6 103.57699999999997 300.00500000000005 C 103.57699999999997 309.4080000000001 110.22899999999997 317.27200000000005 119.07399999999997 319.17900000000003 L 119.07399999999997 366.809 C 118.34299999999998 372.079 116.91899999999997 377.283 114.81599999999997 382.28200000000004 C 104.734 406.28 79.248 421.71 53.236 417.955 z M 99.668 488.416 C 74.602 494.757 57.702000000000005 466.774 64.99000000000001 445.068 C 68.438 434.79699999999997 76.11800000000001 426.789 85.70500000000001 421.984 C 96.42600000000002 416.611 105.799 410.72499999999997 113.29500000000002 401.082 C 115.47700000000002 398.277 117.35700000000001 395.288 119.07200000000002 392.214 L 119.07200000000002 451.823 C 118.24500000000002 450.895 117.36000000000001 450.001 116.40300000000002 449.226 C 108.56600000000002 442.848 94.66800000000002 442.973 90.01400000000002 453.212 C 89.44100000000003 454.481 89.09400000000002 456.135 89.01600000000002 457.133 C 88.83800000000002 459.40099999999995 90.52600000000002 461.36699999999996 92.79300000000002 461.55899999999997 C 95.04400000000003 461.779 97.05700000000002 460.056 97.26300000000002 457.789 C 97.28700000000002 457.51099999999997 97.45500000000001 456.84499999999997 97.55100000000002 456.62899999999996 C 102.03400000000002 446.688 114.51100000000002 457.45099999999996 116.16100000000002 463.57599999999996 C 119.218 474.926 110.363 485.715 99.668 488.416 z M 164.026 530.47 C 143.185 544.53 107.63500000000002 532.499 110.92500000000001 503.82300000000004 C 112.23100000000001 492.43800000000005 121.93200000000002 481.889 134.06300000000002 483.35600000000005 C 139.41000000000003 484.00300000000004 144.64900000000003 487.28100000000006 146.364 492.59400000000005 C 147.447 495.94800000000004 146.964 500.744 143.336 502.41300000000007 C 143.11 502.51200000000006 142.437 502.6770000000001 142.156 502.7010000000001 C 139.88500000000002 502.9030000000001 138.193 504.9070000000001 138.392 507.1820000000001 C 138.588 509.4530000000001 140.495 511.1890000000001 142.849 510.94900000000007 C 143.85399999999998 510.86300000000006 145.50799999999998 510.5130000000001 146.76999999999998 509.94000000000005 C 156.99499999999998 505.2610000000001 157.10899999999998 491.40600000000006 150.73899999999998 483.56100000000004 C 149.96399999999997 482.605 149.06799999999998 481.718 148.14199999999997 480.89200000000005 L 207.74499999999998 480.89200000000005 C 204.67499999999998 482.60400000000004 201.68999999999997 484.48600000000005 198.87999999999997 486.66900000000004 C 190.97799999999998 492.82000000000005 184.44099999999997 500.76300000000003 180.01099999999997 509.74800000000005 C 175.945 517.996 171.888 525.152 164.026 530.47 z M 299.963 581.485 C 291.87 571.7040000000001 287.461 559.525 287.461 546.745 C 287.461 533.965 291.87 521.7860000000001 299.963 512.005 C 308.05600000000004 521.786 312.46500000000003 533.965 312.46500000000003 546.745 C 312.46500000000003 559.525 308.056 571.704 299.963 581.485 z M 417.916 546.725 C 414.66 569.301 396.795 588.213 373.975 591.309 C 350.86600000000004 594.444 327.386 579.74 322.634 556.3829999999999 C 317.926 533.247 335.23 508.4719999999999 359.985 509.90199999999993 C 381.193 511.12699999999995 398.976 536.6489999999999 383.07 554.9029999999999 C 376.303 562.6689999999999 363.601 565.3779999999999 355.579 557.8 C 352.084 554.4979999999999 350.057 549.428 351.571 544.678 C 352.634 541.346 356.968 536.642 360.80800000000005 539.357 C 360.93800000000005 539.4599999999999 361.22700000000003 539.762 361.33600000000007 539.909 C 362.6360000000001 541.793 365.2060000000001 542.269 367.07900000000006 540.976 C 368.96600000000007 539.686 369.4460000000001 537.109 368.15600000000006 535.226 C 367.6550000000001 534.492 366.6600000000001 533.377 365.6550000000001 532.653 C 357.7070000000001 526.9490000000001 347.2950000000001 532.789 344.07900000000006 540.955 C 340.85400000000004 549.144 343.92800000000005 558.5350000000001 350.32700000000006 564.259 C 366.27900000000005 578.529 390.33900000000006 567.022 395.87600000000003 548.362 C 401.86100000000005 528.192 387.75500000000005 507.688 368.04 502.777 C 347.767 497.726 326.64000000000004 509.086 317.999 527.757 C 317.954 527.856 317.927 527.963 317.879 528.063 C 314.97700000000003 518.736 309.92600000000004 510.135 302.93100000000004 502.932 L 299.963 499.875 L 296.995 502.932 C 290 510.135 284.95 518.735 282.047 528.061 C 281.999 527.961 281.975 527.854 281.927 527.753 C 273.278 509.08400000000006 252.16200000000003 497.72900000000004 231.88600000000002 502.77600000000007 C 212.163 507.6860000000001 198.07000000000002 528.1990000000001 204.05500000000004 548.3670000000001 C 209.59100000000004 567.022 233.64400000000003 578.5310000000001 249.59700000000004 564.2610000000001 C 255.99900000000002 558.5340000000001 259.076 549.1490000000001 255.84600000000003 540.9510000000001 C 252.62800000000004 532.7830000000001 242.22800000000004 526.9380000000001 234.26700000000002 532.6550000000001 C 233.26500000000001 533.3750000000001 232.27 534.4900000000001 231.76900000000003 535.2250000000001 C 230.49300000000002 537.0880000000002 230.98000000000005 539.5890000000002 232.82600000000002 540.8960000000002 C 234.67200000000003 542.2030000000002 237.258 541.7400000000002 238.586 539.9110000000002 C 238.69600000000003 539.7630000000001 238.98700000000002 539.4580000000002 239.09 539.3760000000002 C 242.36 537.0620000000002 246.416 540.4350000000002 247.836 543.3290000000002 C 250.28400000000002 548.3170000000002 248.144 554.1750000000002 244.348 557.7990000000002 C 234.751 566.9610000000002 219.538 561.1400000000002 213.88100000000003 550.6290000000002 C 207.38800000000003 538.5650000000003 212.32600000000002 523.5230000000003 223.09600000000003 515.8020000000002 C 233.88400000000004 508.06900000000024 248.48500000000004 508.1420000000002 259.75500000000005 514.8460000000002 C 287.06200000000007 531.0880000000002 281.51800000000003 570.7510000000002 256.07800000000003 585.4870000000002 C 230.70600000000002 600.1830000000002 198.25100000000003 587.4060000000002 186.39700000000005 561.5390000000002 C 172.95300000000006 532.2030000000002 188.52100000000004 497.3880000000002 217.68300000000005 485.1460000000002 C 222.67500000000004 483.0470000000002 227.88300000000004 481.6240000000002 233.15900000000005 480.89200000000017 L 280.78800000000007 480.89200000000017 C 282.69900000000007 489.7330000000002 290.5590000000001 496.38500000000016 299.96200000000005 496.38500000000016 C 309.369 496.38500000000016 317.232 489.7330000000002 319.14000000000004 480.89200000000017 L 366.766 480.89200000000017 C 372.03900000000004 481.6240000000002 377.247 483.04700000000014 382.242 485.1460000000002 C 406.245 495.222 421.67 520.72 417.916 546.725 z M 488.054 514.675 C 481.74699999999996 535.6999999999999 455.907 542.2239999999999 438.025 531.7959999999999 C 430 527.117 424.931 520.1819999999999 420.97499999999997 511.98499999999996 C 416.20599999999996 502.1039999999999 409.75699999999995 493.43999999999994 401.04699999999997 486.66999999999996 C 398.23699999999997 484.48599999999993 395.25199999999995 482.60499999999996 392.18199999999996 480.893 L 451.78799999999995 480.893 C 450.85799999999995 481.719 449.96299999999997 482.60499999999996 449.19399999999996 483.55499999999995 C 442.792 491.417 442.955 505.25199999999995 453.16999999999996 509.948 C 454.419 510.51399999999995 456.07199999999995 510.864 457.078 510.95 C 459.469 511.18 461.339 509.454 461.53499999999997 507.183 C 461.734 504.908 460.04299999999995 502.905 457.77099999999996 502.702 C 457.48999999999995 502.678 456.81699999999995 502.513 456.60799999999995 502.421 C 452.69899999999996 500.617 452.42699999999996 495.352 453.80199999999996 491.851 C 456.407 485.216 464.27099999999996 482.405 470.87399999999997 483.468 C 485.091 485.756 491.959 501.742 488.054 514.675 z M 536.802 454.681 C 538.101 475.948 516.484 497.548 495.081 486.411 C 486.27500000000003 481.829 480.337 471.192 484.485 461.43 C 486.76300000000003 456.069 498.39300000000003 447.783 502.37 456.622 C 502.469 456.845 502.638 457.511 502.662 457.789 C 502.868 460.053 504.88899999999995 461.721 507.132 461.55899999999997 C 509.4 461.36699999999996 511.088 459.40099999999995 510.909 457.133 C 510.83 456.135 510.484 454.481 509.907 453.205 C 505.248 442.948 491.356 442.87399999999997 483.514 449.229 C 482.564 450.006 481.67900000000003 450.897 480.855 451.824 L 480.855 392.218 C 482.567 395.28900000000004 484.45000000000005 398.276 486.632 401.082 C 494.744 411.529 504.858 416.87 516.172 422.993 C 527.823 429.298 535.996 441.376 536.802 454.681 z M 591.447 372.706 C 588.677 397.975 566.79 417.04200000000003 541.787 418.445 C 517.365 419.816 494.50800000000004 404.658 485.11100000000005 382.277 C 483.00800000000004 377.27799999999996 481.58400000000006 372.07099999999997 480.857 366.804 L 480.857 319.173 C 489.69800000000004 317.265 496.35 309.403 496.35 300 C 496.35 290.595 489.69800000000004 282.731 480.857 280.824 L 480.857 233.193 C 481.584 227.929 483.00800000000004 222.72500000000002 485.11100000000005 217.72 C 495.677 192.557 523.1700000000001 176.93200000000002 550.1890000000001 182.684 C 577.8380000000001 188.57 597.6880000000001 216.7 590.128 244.791 C 582.5790000000001 272.846 547.97 288.937 523.676 269.806 C 502.5690000000001 253.18399999999997 506.54400000000004 212.452 537.5540000000001 211.003 C 551.4090000000001 210.355 565.9290000000001 222.783 561.6170000000001 237.56699999999998 C 559.7690000000001 243.903 553.8550000000001 249.57 546.8720000000001 248.86499999999998 C 542.9340000000001 248.46699999999998 535.9630000000001 243.903 539.321 239.152 C 539.424 239.022 539.736 238.72699999999998 539.8870000000001 238.613 C 541.7600000000001 237.313 542.2270000000001 234.74 540.927 232.863 C 539.6270000000001 230.976 537.047 230.516 535.174 231.817 C 534.4399999999999 232.32500000000002 533.3249999999999 233.32 532.611 234.315 C 526.929 242.263 532.7429999999999 252.664 540.92 255.881 C 549.12 259.107 558.506 256.035 564.232 249.626 C 578.858 233.256 566.461 208.845 547.2819999999999 203.815 C 527.7309999999999 198.688 508.2589999999999 212.028 503.02899999999994 230.889 C 497.33699999999993 251.41500000000002 508.67499999999995 273.158 527.7159999999999 281.961 C 527.8189999999998 282.00800000000004 527.9249999999998 282.035 528.0279999999999 282.082 C 518.6999999999999 284.985 510.09899999999993 290.037 502.8939999999999 297.032 L 499.837 300 L 502.894 302.968 C 510.099 309.963 518.696 315.014 528.024 317.918 C 527.925 317.964 527.818 317.99 527.719 318.036 C 509.035 326.665 497.70000000000005 347.814 502.744 368.079 C 507.65200000000004 387.797 528.166 401.896 548.33 395.908 C 566.993 390.36600000000004 578.4960000000001 366.333 564.231 350.37100000000004 C 558.503 343.961 549.133 340.89400000000006 540.931 344.11300000000006 C 532.74 347.32800000000003 526.9200000000001 357.71500000000003 532.618 365.69200000000006 C 533.3380000000001 366.6940000000001 534.4570000000001 367.6890000000001 535.191 368.19300000000004 C 537.0500000000001 369.473 539.551 368.97900000000004 540.8620000000001 367.136 C 542.166 365.29 541.7030000000001 362.70700000000005 539.8770000000001 361.37600000000003 C 539.729 361.27000000000004 539.4240000000001 360.975 539.3420000000001 360.872 C 536.8210000000001 357.332 540.7560000000001 353.124 543.8980000000001 351.83500000000004 C 547.7160000000001 350.26900000000006 552.1820000000001 351.278 555.4730000000002 353.569 C 564.5710000000001 359.904 563.8070000000001 373.3 557.0150000000002 381.00800000000004 C 540.6210000000002 399.615 512.7460000000002 383.552 510.0640000000002 362.24100000000004 C 506.9560000000002 337.545 530.7790000000002 318.82300000000004 554.1420000000002 322.28000000000003 C 578.054 325.822 594.035 349.182 591.447 372.706 z" stroke-linecap="round" />
</g>
		<g transform="matrix(0.24 0 0 0.24 32.8 -25.12)"  >
<path style="stroke: none; stroke-width: 1; stroke-dasharray: none; stroke-linecap: butt; stroke-dashoffset: 0; stroke-linejoin: miter; stroke-miterlimit: 4; fill: rgb(0,49,156); fill-rule: nonzero; opacity: 1;" vector-effect="non-scaling-stroke"  transform=" translate(-403.34, -195.34)" d="M 578.683 252.539 C 573.608 282.784 537.539 237.844 530.763 256.068 C 523.986 274.293 535.224 299.507 523.86 322.759 C 519.338 312.45500000000004 514.097 302.475 508.16700000000003 292.891 C 481.65200000000004 249.812 443.134 216.495 396.778 196.54200000000003 C 366.308 183.41800000000003 333.887 176.76500000000004 300.418 176.76500000000004 C 275.27 176.76500000000004 250.714 180.52200000000005 227.132 187.95600000000005 C 227.25900000000001 187.73100000000005 227.37900000000002 187.50200000000004 227.507 187.27700000000004 C 228.62900000000002 185.34200000000004 229.824 183.44700000000003 230.989 181.53700000000003 C 230.95000000000002 181.56000000000003 230.91 181.57000000000002 230.871 181.59200000000004 C 249.376 151.17500000000004 275.111 125.04900000000004 305.447 106.37600000000005 C 321.459 96.47100000000005 338.646 88.65800000000004 356.636 83.09200000000004 C 356.64300000000003 83.10000000000004 356.653 83.10500000000005 356.66 83.11300000000004 C 357.43100000000004 82.87500000000004 358.20700000000005 82.65000000000005 358.978 82.41300000000004 C 359.938 82.12800000000004 360.899 81.85000000000004 361.863 81.57600000000004 C 416.843 65.52900000000004 463.722 61.332000000000036 477.835 81.57600000000004 C 484.07099999999997 90.52100000000004 475.81899999999996 100.93900000000004 456.154 92.88800000000003 C 438.903 85.82500000000003 423.604 97.71600000000004 428.94 105.85500000000003 C 433.981 113.54100000000003 450.473 113.35400000000003 460.943 113.08700000000003 C 468.479 112.89700000000003 475.93899999999996 113.65600000000003 483.37899999999996 120.40900000000003 C 495.66599999999994 131.56200000000004 468.25699999999995 138.11400000000003 477.33 150.21200000000005 C 486.40299999999996 162.31000000000006 550.42 113.41500000000005 574.615 155.75800000000004 C 598.8100000000001 198.09900000000005 507.069 155.29000000000005 508.582 186.00100000000003 C 510.094 216.71400000000003 535.298 232.66400000000004 550.42 222.18600000000004 C 565.544 211.708 583.758 222.294 578.683 252.539 z M 561.511 94.765 C 569.072 79.138 513.624 60.992 507.07099999999997 78.635 C 498.689 101.203 553.95 110.391 561.511 94.765 z" stroke-linecap="round" />
</g>
		<g transform="matrix(0.24 0 0 0.24 1.25 0)"  >
<path style="stroke: none; stroke-width: 1; stroke-dasharray: none; stroke-linecap: butt; stroke-dashoffset: 0; stroke-linejoin: miter; stroke-miterlimit: 4; fill: rgb(0,49,156); fill-rule: nonzero; opacity: 1;" vector-effect="non-scaling-stroke"  transform=" translate(-271.87, -300)" d="M 516.721 359.325 C 532.275 411.825 516.649 440.052 506.44100000000003 436.272 C 496.23400000000004 432.49 504.29900000000004 419.007 504.55100000000004 413.21 C 504.80300000000005 407.414 493.96600000000007 404.768 492.07500000000005 419.133 C 490.18500000000006 433.5 494.09100000000007 454.671 496.86400000000003 460.971 C 499.636 467.272 502.283 483.529 482.87600000000003 484.788 C 463.46900000000005 486.04900000000004 485.901 450.071 480.10400000000004 445.219 C 474.307 440.367 452.569 462.10699999999997 452.00200000000007 484.82099999999997 C 451.43500000000006 507.534 442.74000000000007 517.554 432.3430000000001 512.827 C 421.94700000000006 508.102 433.8550000000001 495.05899999999997 433.47800000000007 489.578 C 433.1000000000001 484.09499999999997 382.8190000000001 498.27299999999997 370.3430000000001 540.615 C 357.8670000000001 582.956 320.5660000000001 620.51 295.8670000000001 587.241 C 271.16800000000006 553.972 336.69700000000006 545.403 329.1360000000001 531.794 C 321.5750000000001 518.183 289.55500000000006 531.125 275.5730000000001 521.379 C 285.8700000000001 516.857 295.8450000000001 511.61600000000004 305.4290000000001 505.68800000000005 C 348.5180000000001 479.165 381.8370000000001 440.634 401.77600000000007 394.26200000000006 C 414.90100000000007 363.79200000000003 421.55500000000006 331.37100000000004 421.55500000000006 297.9000000000001 C 421.55500000000006 272.7140000000001 417.7870000000001 248.11900000000009 410.3280000000001 224.50400000000008 C 443.6780000000001 243.1670000000001 471.59800000000007 269.9390000000001 491.9040000000001 302.9270000000001 C 502.757 320.471 511.1 339.434 516.721 359.325 z M 373.823 407.808 C 350.207 415.267 325.61199999999997 419.03499999999997 300.419 419.03499999999997 C 266.94599999999997 419.03499999999997 234.52499999999998 412.38199999999995 204.057 399.258 C 200.301 397.643 196.617 395.90799999999996 192.97 394.114 C 192.876 394.068 192.782 394.02299999999997 192.689 393.97799999999995 C 191.94 393.60699999999997 191.18 393.256 190.435 392.87899999999996 C 190.44 392.861 190.436 392.84099999999995 190.441 392.823 C 150.144 372.503 116.503 341.69399999999996 92.631 302.909 C 87.492 294.603 82.902 285.98699999999997 78.81700000000001 277.13599999999997 C 78.188 275.777 77.54100000000001 274.42499999999995 76.93900000000001 273.05499999999995 C 53.464000000000006 315.87799999999993 92.47500000000001 359.90599999999995 81.89 368.60099999999994 C 75.867 373.54799999999994 66.011 339.8689999999999 47.109 346.29499999999996 C 28.207 352.72299999999996 38.792 371.246 72.439 389.393 C 106.085 407.53999999999996 131.572 446.34 130.029 454.671 C 128.486 463.002 100.79299999999999 440.557 106.842 460.71999999999997 C 112.891 480.883 162.79399999999998 480.378 179.428 494.996 C 196.062 509.613 159.265 525.239 133.558 501.04499999999996 C 107.85 476.84899999999993 62.988 486.92999999999995 81.639 514.24 C 100.28899999999999 541.551 143.135 541.37 239.02999999999997 514.24 C 258.902 508.616 277.851 500.273 295.392 489.423 C 328.393 469.109 355.166 441.176 373.823 407.808 z M 108.894 292.872 C 129.207 325.872 157.142 352.647 190.51100000000002 371.305 C 183.05300000000003 347.688 179.28200000000004 323.088 179.28200000000004 297.899 C 179.28200000000004 264.43 185.93600000000004 232.00900000000001 199.05800000000005 201.537 C 219.02500000000003 155.149 252.34400000000005 116.61800000000001 295.40900000000005 90.111 C 304.99300000000005 84.183 314.96600000000007 78.941 325.26300000000003 74.422 C 304.75600000000003 64.916 266.379 67.292 278.098 52.548 C 289.81800000000004 37.804 279.988 24.951 270.915 30.998 C 261.841 37.047000000000004 264.86600000000004 44.986000000000004 250.122 65.402 C 235.37800000000001 85.816 179.048 99.048 175.64600000000002 73.063 C 172.243 47.081 195.305 0 178.67 0 C 162.036 0 150.694 17.012 157.12099999999998 63.891 C 163.54799999999997 110.769 141.243 135.34199999999998 135.95 131.562 C 130.65699999999998 127.78200000000001 140.10899999999998 110.769 127.255 110.769 C 114.40100000000001 110.769 114.401 128.916 120.072 145.55 C 125.74300000000001 162.18400000000003 104.95 182.59900000000002 97.011 168.91500000000002 C 89.072 155.23100000000002 114.90599999999999 95.77300000000002 84.078 101.31700000000002 C 53.25 106.86300000000003 66.515 168.86400000000003 84.078 236.51300000000003 C 89.701 256.387 98.045 275.335 108.894 292.872 z M 465.99 531.542 C 473.92900000000003 547.4200000000001 492.076 517.931 486.783 504.321 C 482.092 492.259 458.051 515.663 465.99 531.542 z M 57.853 261.553 C 64.321 236.49 56.732 215.45 30.944000000000003 224.206 C 5.156000000000002 232.96099999999998 34.120000000000005 255.012 41.222 261.553 C 48.323 268.094 56.358 267.346 57.853 261.553 z" stroke-linecap="round" />
</g>
		<g transform="matrix(1.6 0 0 1.6 -143.54 -32.08)" style=""  >
		<text xml:space="preserve" font-family="Damion" font-size="64" font-style="normal" font-weight="normal" style="stroke: none; stroke-width: 1; stroke-dasharray: none; stroke-linecap: butt; stroke-dashoffset: 0; stroke-linejoin: miter; stroke-miterlimit: 4; fill: rgb(0,32,105); fill-rule: nonzero; opacity: 1; white-space: pre;" ></text>
</g>
</g>
</g>
</svg>